Oxygen-Sans-Bold-FF.ufo
<glyph name="exclam" format="1">
  <advance width="613"/>
  <unicode hex="0021"/>
  <outline>
    <contour>
      <point x="263" y="439" type="line"/>
      <point x="198" y="1298" type="line"/>
      <point x="198" y="1480" type="line"/>
      <point x="419" y="1480" type="line"/>
      <point x="419" y="1298" type="line"/>
      <point x="361" y="439" type="line"/>
    </contour>
    <contour>
      <point x="308" y="-10" type="curve" smooth="yes"/>
      <point x="222" y="-10"/>
      <point x="168" y="58"/>
      <point x="168" y="130" type="curve" smooth="yes"/>
      <point x="168" y="203"/>
      <point x="222" y="269"/>
      <point x="308" y="269" type="curve" smooth="yes"/>
      <point x="394" y="269"/>
      <point x="447" y="203"/>
      <point x="447" y="130" type="curve" smooth="yes"/>
      <point x="447" y="57"/>
      <point x="394" y="-10"/>
    </contour>
  </outline>
</glyph>
<glyph name="period" format="1">
  <advance width="533"/>
  <unicode hex="002E"/>
  <outline>
    <contour>
      <point x="284" y="-6" type="curve" smooth="yes"/>
      <point x="201" y="-6"/>
      <point x="146" y="58"/>
      <point x="146" y="130" type="curve" smooth="yes"/>
      <point x="146" y="202"/>
      <point x="200" y="268"/>
      <point x="284" y="268" type="curve" smooth="yes"/>
      <point x="367" y="268"/>
      <point x="420" y="202"/>
      <point x="420" y="130" type="curve" smooth="yes"/>
      <point x="420" y="59"/>
      <point x="367" y="-6"/>
    </contour>
  </outline>
</glyph>
<glyph name="slash" format="1">
  <advance width="934"/>
  <unicode hex="002F"/>
  <outline>
    <contour>
      <point x="78" y="-163" type="line"/>
      <point x="708" y="1444" type="line"/>
      <point x="893" y="1444" type="line"/>
      <point x="259" y="-163" type="line"/>
    </contour>
  </outline>
</glyph>
<glyph name="one" format="1">
  <advance width="1217"/>
  <unicode hex="0031"/>
  <outline>
    <contour>
      <point x="197" y="0" type="line"/>
      <point x="197" y="180" type="line"/>
      <point x="563" y="180" type="line"/>
      <point x="563" y="1247.71" type="line"/>
      <point x="472.307" y="1197.49"/>
      <point x="308.451" y="1147.8"/>
      <point x="202" y="1132" type="curve"/>
      <point x="202" y="1313" type="line"/>
      <point x="310" y="1340"/>
      <point x="509" y="1402"/>
      <point x="590" y="1460" type="curve"/>
      <point x="803" y="1460" type="line"/>
      <point x="803" y="180" type="line"/>
      <point x="1123" y="180" type="line"/>
      <point x="1123" y="0" type="line"/>
    </contour>
  </outline>
</glyph>
<glyph name="two" format="1">
  <advance width="1217"/>
  <unicode hex="0032"/>
  <outline>
    <contour>
      <point x="200" y="0" type="line"/>
      <point x="185" y="194" type="line"/>
      <point x="646" y="725" type="line" smooth="yes"/>
      <point x="754" y="850"/>
      <point x="819" y="934"/>
      <point x="819" y="1058" type="curve" smooth="yes"/>
      <point x="819" y="1222"/>
      <point x="698" y="1280"/>
      <point x="573" y="1280" type="curve" smooth="yes"/>
      <point x="453" y="1280"/>
      <point x="315" y="1227"/>
      <point x="236" y="1165" type="curve"/>
      <point x="165" y="1354" type="line"/>
      <point x="271" y="1428"/>
      <point x="436" y="1481"/>
      <point x="595" y="1481" type="curve" smooth="yes"/>
      <point x="818" y="1481"/>
      <point x="1043" y="1375"/>
      <point x="1049" y="1072" type="curve" smooth="yes"/>
      <point x="1049.11" y="1066.79"/>
      <point x="1049.17" y="1061.63"/>
      <point x="1049.17" y="1056.53" type="curve" smooth="yes"/>
      <point x="1049.17" y="878.462"/>
      <point x="980.595" y="763.121"/>
      <point x="792" y="558" type="curve"/>
      <point x="438.923" y="180" type="line"/>
      <point x="1047" y="180" type="line"/>
      <point x="1032" y="0" type="line"/>
    </contour>
  </outline>
</glyph>
<glyph name="three" format="1">
  <advance width="1217"/>
  <unicode hex="0033"/>
  <outline>
    <contour>
      <point x="603" y="-20" type="curve" smooth="yes"/>
      <point x="441" y="-20"/>
      <point x="283" y="35"/>
      <point x="178" y="101" type="curve"/>
      <point x="250" y="276" type="line"/>
      <point x="342" y="221"/>
      <point x="475" y="180"/>
      <point x="589" y="180" type="curve" smooth="yes"/>
      <point x="756" y="180"/>
      <point x="859" y="263"/>
      <point x="859" y="409" type="curve" smooth="yes"/>
      <point x="859" y="612"/>
      <point x="693" y="664"/>
      <point x="455" y="664" type="curve" smooth="yes"/>
      <point x="400" y="664" type="line"/>
      <point x="400" y="853" type="line"/>
      <point x="456" y="853" type="line" smooth="yes"/>
      <point x="660" y="853"/>
      <point x="830" y="896"/>
      <point x="830" y="1083" type="curve" smooth="yes"/>
      <point x="830" y="1207"/>
      <point x="732" y="1280"/>
      <point x="573" y="1280" type="curve" smooth="yes"/>
      <point x="450" y="1280"/>
      <point x="338" y="1243"/>
      <point x="251" y="1187" type="curve"/>
      <point x="173" y="1367" type="line"/>
      <point x="286" y="1437"/>
      <point x="433" y="1480"/>
      <point x="600" y="1480" type="curve" smooth="yes"/>
      <point x="860" y="1480"/>
      <point x="1058" y="1331"/>
      <point x="1058" y="1099" type="curve" smooth="yes"/>
      <point x="1058" y="931"/>
      <point x="979" y="826"/>
      <point x="833" y="777" type="curve"/>
      <point x="1013" y="724"/>
      <point x="1096" y="582"/>
      <point x="1096" y="395" type="curve" smooth="yes"/>
      <point x="1096" y="123"/>
      <point x="883" y="-20"/>
    </contour>
  </outline>
</glyph>
<glyph name="seven" format="1">
  <advance width="1217"/>
  <unicode hex="0037"/>
  <outline>
    <contour>
      <point x="343" y="0" type="line"/>
      <point x="811" y="1266" type="line"/>
      <point x="186" y="1266" type="line"/>
      <point x="178" y="1457" type="line"/>
      <point x="1068" y="1457" type="line"/>
      <point x="1068" y="1298" type="line"/>
      <point x="588" y="0" type="line"/>
    </contour>
  </outline>
</glyph>
<glyph name="equal" format="1">
  <advance width="1217"/>
  <unicode hex="003D"/>
  <outline>
    <contour>
      <point x="143" y="467" type="line"/>
      <point x="143" y="648" type="line"/>
      <point x="1074" y="648" type="line"/>
      <point x="1074" y="467" type="line"/>
    </contour>
    <contour>
      <point x="143" y="851" type="line"/>
      <point x="143" y="1032" type="line"/>
      <point x="1074" y="1032" type="line"/>
      <point x="1074" y="851" type="line"/>
    </contour>
  </outline>
</glyph>
<glyph name="question" format="1">
  <advance width="971"/>
  <unicode hex="003F"/>
  <outline>
    <contour>
      <point x="433" y="439" type="curve"/>
      <point x="331" y="439" type="line"/>
      <point x="396" y="795"/>
      <point x="590" y="892"/>
      <point x="590" y="1089" type="curve"/>
      <point x="589" y="1203"/>
      <point x="503" y="1262"/>
      <point x="417" y="1262" type="curve" smooth="yes"/>
      <point x="327" y="1262"/>
      <point x="246" y="1220"/>
      <point x="177" y="1180" type="curve"/>
      <point x="117" y="1364" type="line"/>
      <point x="206" y="1441"/>
      <point x="330" y="1480"/>
      <point x="451" y="1480" type="curve" smooth="yes"/>
      <point x="653" y="1480"/>
      <point x="845" y="1370"/>
      <point x="845" y="1142" type="curve" smooth="yes"/>
      <point x="845" y="826"/>
      <point x="516" y="681"/>
    </contour>
    <contour>
      <point x="385" y="-10" type="curve" smooth="yes"/>
      <point x="301" y="-10"/>
      <point x="246" y="57"/>
      <point x="246" y="130" type="curve" smooth="yes"/>
      <point x="246" y="203"/>
      <point x="300" y="269"/>
      <point x="385" y="269" type="curve" smooth="yes"/>
      <point x="469" y="269"/>
      <point x="521" y="203"/>
      <point x="521" y="130" type="curve" smooth="yes"/>
      <point x="521" y="57"/>
      <point x="469" y="-10"/>
    </contour>
  </outline>
</glyph>
<glyph name="D" format="1">
  <advance width="1486"/>
  <unicode hex="0044"/>
  <outline>
    <contour>
      <point x="148" y="0" type="line"/>
      <point x="148" y="1460" type="line"/>
      <point x="575" y="1460" type="line" smooth="yes"/>
      <point x="1052" y="1460"/>
      <point x="1390" y="1233"/>
      <point x="1390" y="736" type="curve" smooth="yes"/>
      <point x="1390" y="260"/>
      <point x="1075" y="0"/>
      <point x="602" y="0" type="curve" smooth="yes"/>
    </contour>
    <contour>
      <point x="388" y="1276" type="line"/>
      <point x="388" y="180" type="line"/>
      <point x="606" y="180" type="line" smooth="yes"/>
      <point x="954" y="180"/>
      <point x="1138" y="382"/>
      <point x="1138" y="731" type="curve" smooth="yes"/>
      <point x="1138" y="1113"/>
      <point x="936" y="1276"/>
      <point x="578" y="1276" type="curve" smooth="yes"/>
    </contour>
  </outline>
</glyph>
<glyph name="H" format="1">
  <advance width="1480"/>
  <unicode hex="0048"/>
  <outline>
    <contour>
      <point x="148" y="0" type="line"/>
      <point x="148" y="1460" type="line"/>
      <point x="388" y="1460" type="line"/>
      <point x="388" y="843" type="line"/>
      <point x="1092" y="843" type="line"/>
      <point x="1092" y="1460" type="line"/>
      <point x="1332" y="1460" type="line"/>
      <point x="1332" y="0" type="line"/>
      <point x="1092" y="0" type="line"/>
      <point x="1092" y="655" type="line"/>
      <point x="388" y="655" type="line"/>
      <point x="388" y="0" type="line"/>
    </contour>
  </outline>
</glyph>
<glyph name="M" format="1">
  <advance width="1811"/>
  <unicode hex="004D"/>
  <outline>
    <contour>
      <point x="144" y="0" type="line"/>
      <point x="180" y="1460" type="line"/>
      <point x="432" y="1460" type="line"/>
      <point x="906.216" y="461.314" type="line"/>
      <point x="1385" y="1460" type="line"/>
      <point x="1631" y="1460" type="line"/>
      <point x="1667" y="0" type="line"/>
      <point x="1444" y="0" type="line"/>
      <point x="1431" y="693" type="line"/>
      <point x="1428.59" y="1100.4" type="line"/>
      <point x="991" y="191" type="line"/>
      <point x="816" y="191" type="line"/>
      <point x="384.265" y="1107.08" type="line"/>
      <point x="381" y="690" type="line"/>
      <point x="369" y="0" type="line"/>
    </contour>
  </outline>
</glyph>
<glyph name="Q" format="1">
  <advance width="1615"/>
  <unicode hex="0051"/>
  <outline>
    <component base="O"/>
    <contour>
      <point x="1231" y="-434" type="line"/>
      <point x="1103" y="-318"/>
      <point x="926" y="-100"/>
      <point x="844" y="81" type="curve"/>
      <point x="1048" y="147" type="line"/>
      <point x="1122" y="6"/>
      <point x="1246" y="-161"/>
      <point x="1395" y="-310" type="curve"/>
    </contour>
  </outline>
</glyph>
<glyph name="T" format="1">
  <advance width="1165"/>
  <unicode hex="0054"/>
  <outline>
    <contour>
      <point x="462" y="0" type="line"/>
      <point x="462" y="1280" type="line"/>
      <point x="18" y="1280" type="line"/>
      <point x="18" y="1460" type="line"/>
      <point x="1147" y="1460" type="line"/>
      <point x="1147" y="1280" type="line"/>
      <point x="702" y="1280" type="line"/>
      <point x="702" y="0" type="line"/>
    </contour>
  </outline>
</glyph>
<glyph name="V" format="1">
  <advance width="1334"/>
  <unicode hex="0056"/>
  <outline>
    <contour>
      <point x="525" y="0" type="line"/>
      <point x="30" y="1460" type="line"/>
      <point x="290" y="1460" type="line"/>
      <point x="416.388" y="1066.97"/>
      <point x="546.472" y="677.632"/>
      <point x="668.564" y="280.305" type="curve"/>
      <point x="795.212" y="673.7"/>
      <point x="922.179" y="1066.78"/>
      <point x="1049" y="1460" type="curve"/>
      <point x="1304" y="1460" type="line"/>
      <point x="793" y="0" type="line"/>
    </contour>
  </outline>
</glyph>
<glyph name="X" format="1">
  <advance width="1313"/>
  <unicode hex="0058"/>
  <outline>
    <contour>
      <point x="1019" y="0" type="line"/>
      <point x="658.248" y="548.072" type="line"/>
      <point x="283" y="0" type="line"/>
      <point x="26" y="0" type="line"/>
      <point x="527.116" y="747.295" type="line"/>
      <point x="58" y="1460" type="line"/>
      <point x="330" y="1460" type="line"/>
      <point x="679.639" y="929.362" type="line"/>
      <point x="1016" y="1460" type="line"/>
      <point x="1271" y="1460" type="line"/>
      <point x="806.58" y="736.708" type="line"/>
      <point x="1292" y="0" type="line"/>
    </contour>
  </outline>
</glyph>
<glyph name="Z" format="1">
  <advance width="1242"/>
  <unicode hex="005A"/>
  <outline>
    <contour>
      <point x="143" y="0" type="line"/>
      <point x="143" y="160" type="line"/>
      <point x="851.956" y="1280" type="line"/>
      <point x="163" y="1280" type="line"/>
      <point x="163" y="1460" type="line"/>
      <point x="1124" y="1460" type="line"/>
      <point x="1127" y="1293" type="line"/>
      <point x="427.4" y="180" type="line"/>
      <point x="1140" y="180" type="line"/>
      <point x="1132" y="0" type="line"/>
    </contour>
  </outline>
</glyph>
<glyph name="bracketleft" format="1">
  <advance width="735"/>
  <unicode hex="005B"/>
  <outline>
    <contour>
      <point x="205" y="-175" type="line"/>
      <point x="205" y="1460" type="line"/>
      <point x="660" y="1460" type="line"/>
      <point x="660" y="1298" type="line"/>
      <point x="419" y="1298" type="line"/>
      <point x="419" y="-13" type="line"/>
      <point x="660" y="-13" type="line"/>
      <point x="660" y="-175" type="line"/>
    </contour>
  </outline>
</glyph>
<glyph name="underscore" format="1">
  <advance width="1051"/>
  <unicode hex="005F"/>
  <outline>
    <contour>
      <point x="66" y="-221" type="line"/>
      <point x="66" y="-62" type="line"/>
      <point x="1017" y="-62" type="line"/>
      <point x="1017" y="-221" type="line"/>
    </contour>
  </outline>
</glyph>
<glyph name="grave" format="1">
  <advance width="544"/>
  <unicode hex="0060"/>
  <outline>
    <contour>
      <point x="360" y="1058" type="line"/>
      <point x="51" y="1460" type="line"/>
      <point x="316" y="1460" type="line"/>
      <point x="501" y="1058" type="line"/>
    </contour>
  </outline>
</glyph>
<glyph name="a" format="1">
  <advance width="1042"/>
  <unicode hex="0061"/>
  <outline>
    <contour>
      <point x="299" y="312" type="curve" smooth="yes"/>
      <point x="299" y="207"/>
      <point x="354" y="147"/>
      <point x="458" y="147" type="curve" smooth="yes"/>
      <point x="558.128" y="147"/>
      <point x="649.078" y="204.52"/>
      <point x="705" y="273.129" type="curve"/>
      <point x="705" y="475" type="line"/>
      <point x="598" y="475" type="line" smooth="yes"/>
      <point x="378" y="475"/>
      <point x="299" y="437"/>
    </contour>
    <contour>
      <point x="706" y="613" type="line"/>
      <point x="706" y="682" type="line" smooth="yes"/>
      <point x="706" y="840"/>
      <point x="615" y="905"/>
      <point x="481" y="905" type="curve" smooth="yes"/>
      <point x="398" y="905"/>
      <point x="298" y="880"/>
      <point x="193" y="838" type="curve"/>
      <point x="146" y="999" type="line"/>
      <point x="257" y="1046"/>
      <point x="384" y="1076"/>
      <point x="503" y="1076" type="curve" smooth="yes"/>
      <point x="729" y="1076"/>
      <point x="925" y="968"/>
      <point x="925" y="662" type="curve" smooth="yes"/>
      <point x="925" y="0" type="line"/>
      <point x="763" y="0" type="line"/>
      <point x="732.264" y="152.947" type="line"/>
      <point x="649.905" y="40.7243"/>
      <point x="540.476" y="-18"/>
      <point x="419" y="-18" type="curve" smooth="yes"/>
      <point x="237" y="-18"/>
      <point x="88" y="85"/>
      <point x="88" y="292" type="curve" smooth="yes"/>
      <point x="88" y="522"/>
      <point x="233" y="613"/>
      <point x="545" y="613" type="curve" smooth="yes"/>
    </contour>
  </outline>
</glyph>
<glyph name="b" format="1">
  <advance width="1178"/>
  <unicode hex="0062"/>
  <outline>
    <contour>
      <point x="616" y="152" type="curve" smooth="yes"/>
      <point x="781" y="152"/>
      <point x="878" y="282"/>
      <point x="878" y="533" type="curve" smooth="yes"/>
      <point x="878" y="781"/>
      <point x="788" y="904"/>
      <point x="622" y="904" type="curve" smooth="yes"/>
      <point x="450" y="904"/>
      <point x="348" y="789"/>
      <point x="347" y="546" type="curve"/>
      <point x="347" y="273"/>
      <point x="455" y="152"/>
    </contour>
    <contour>
      <point x="661" y="-18" type="curve"/>
      <point x="518.151" y="-18"/>
      <point x="401.514" y="50.9755"/>
      <point x="334.001" y="156.274" type="curve"/>
      <point x="317" y="0" type="line"/>
      <point x="130" y="0" type="line"/>
      <point x="130" y="1460" type="line"/>
      <point x="352" y="1480" type="line"/>
      <point x="352" y="1103" type="line"/>
      <point x="349.148" y="907.621" type="line"/>
      <point x="417.756" y="1017.46"/>
      <point x="530.813" y="1076"/>
      <point x="666" y="1076" type="curve" smooth="yes"/>
      <point x="948" y="1076"/>
      <point x="1104" y="854"/>
      <point x="1104" y="534" type="curve" smooth="yes"/>
      <point x="1104" y="204"/>
      <point x="938" y="-18"/>
    </contour>
  </outline>
</glyph>
<glyph name="c" format="1">
  <advance width="954"/>
  <unicode hex="0063"/>
  <outline>
    <contour>
      <point x="879" y="61" type="line"/>
      <point x="843" y="35"/>
      <point x="754" y="-18"/>
      <point x="583" y="-18" type="curve" smooth="yes"/>
      <point x="278" y="-18"/>
      <point x="74" y="189"/>
      <point x="74" y="531" type="curve" smooth="yes"/>
      <point x="74" y="875"/>
      <point x="296" y="1076"/>
      <point x="585" y="1076" type="curve" smooth="yes"/>
      <point x="726" y="1076"/>
      <point x="826" y="1039"/>
      <point x="885" y="998" type="curve"/>
      <point x="830" y="844" type="line"/>
      <point x="808" y="858"/>
      <point x="730" y="904"/>
      <point x="611" y="904" type="curve" smooth="yes"/>
      <point x="436" y="904"/>
      <point x="300" y="773"/>
      <point x="300" y="529" type="curve" smooth="yes"/>
      <point x="300" y="291.793"/>
      <point x="394" y="152"/>
      <point x="623" y="152" type="curve" smooth="yes"/>
      <point x="708" y="152"/>
      <point x="785" y="183"/>
      <point x="846" y="218" type="curve"/>
    </contour>
  </outline>
</glyph>
<glyph name="d" format="1">
  <advance width="1183"/>
  <unicode hex="0064"/>
  <outline>
    <contour>
      <point x="571" y="152" type="curve" smooth="yes"/>
      <point x="749" y="152"/>
      <point x="839" y="275"/>
      <point x="840" y="518" type="curve"/>
      <point x="840" y="796"/>
      <point x="745" y="904"/>
      <point x="582" y="904" type="curve" smooth="yes"/>
      <point x="418" y="904"/>
      <point x="300" y="798"/>
      <point x="300" y="533" type="curve" smooth="yes"/>
      <point x="300" y="274"/>
      <point x="397" y="152"/>
    </contour>
    <contour>
      <point x="838.49" y="941.146" type="curve"/>
      <point x="831" y="1110" type="line"/>
      <point x="831" y="1460" type="line"/>
      <point x="1055" y="1480" type="line"/>
      <point x="1055" y="0" type="line"/>
      <point x="874" y="0" type="line"/>
      <point x="853.25" y="167.883" type="line"/>
      <point x="795.49" y="56.0892"/>
      <point x="696.937" y="-18"/>
      <point x="528" y="-18" type="curve" smooth="yes"/>
      <point x="245" y="-18"/>
      <point x="74" y="199"/>
      <point x="74" y="537" type="curve" smooth="yes"/>
      <point x="74" y="858"/>
      <point x="250" y="1076"/>
      <point x="527" y="1076" type="curve" smooth="yes"/>
      <point x="677.831" y="1076"/>
      <point x="774.664" y="1022.65"/>
    </contour>
  </outline>
</glyph>
<glyph name="e" format="1">
  <advance width="1049"/>
  <unicode hex="0065"/>
  <outline>
    <contour>
      <point x="624" y="-18" type="curve" smooth="yes"/>
      <point x="321" y="-18"/>
      <point x="76" y="168"/>
      <point x="76" y="528" type="curve" smooth="yes"/>
      <point x="76" y="865"/>
      <point x="277" y="1076"/>
      <point x="558" y="1076" type="curve" smooth="yes"/>
      <point x="825" y="1076"/>
      <point x="971" y="861"/>
      <point x="971" y="567" type="curve" smooth="yes"/>
      <point x="971" y="547"/>
      <point x="963" y="462"/>
      <point x="963" y="462" type="curve"/>
      <point x="303.512" y="462" type="line"/>
      <point x="320.103" y="223.06"/>
      <point x="470.769" y="151"/>
      <point x="633" y="151" type="curve" smooth="yes"/>
      <point x="758" y="151"/>
      <point x="842" y="188"/>
      <point x="902" y="218" type="curve"/>
      <point x="936" y="64" type="line"/>
      <point x="856" y="11"/>
      <point x="756" y="-18"/>
    </contour>
    <contour>
      <point x="774.885" y="613" type="line"/>
      <point x="765.728" y="802.257"/>
      <point x="699.774" y="904"/>
      <point x="562" y="904" type="curve" smooth="yes"/>
      <point x="425.151" y="904"/>
      <point x="322.502" y="802.257"/>
      <point x="307.81" y="613" type="curve"/>
    </contour>
  </outline>
</glyph>
<glyph name="f" format="1">
  <advance width="718"/>
  <unicode hex="0066"/>
  <outline>
    <contour>
      <point x="199" y="0" type="line"/>
      <point x="199" y="912" type="line"/>
      <point x="30" y="912" type="line"/>
      <point x="35" y="1039" type="line"/>
      <point x="199" y="1056.26" type="line"/>
      <point x="199" y="1103" type="line" smooth="yes"/>
      <point x="199" y="1390"/>
      <point x="333" y="1469"/>
      <point x="529" y="1469" type="curve" smooth="yes"/>
      <point x="595" y="1469"/>
      <point x="661" y="1461"/>
      <point x="710" y="1451" type="curve"/>
      <point x="690" y="1291" type="line"/>
      <point x="668" y="1295"/>
      <point x="612" y="1303"/>
      <point x="569" y="1303" type="curve" smooth="yes"/>
      <point x="477" y="1303"/>
      <point x="423" y="1281"/>
      <point x="423" y="1120" type="curve" smooth="yes"/>
      <point x="423" y="1058" type="line"/>
      <point x="671" y="1058" type="line"/>
      <point x="671" y="912" type="line"/>
      <point x="423" y="912" type="line"/>
      <point x="423" y="0" type="line"/>
    </contour>
  </outline>
</glyph>
<glyph name="j" format="1">
  <advance width="567"/>
  <unicode hex="006A"/>
  <outline>
    <contour>
      <point x="8" y="-380" type="line"/>
      <point x="-14" y="-205" type="line"/>
      <point x="26" y="-201" type="line" smooth="yes"/>
      <point x="169" y="-187"/>
      <point x="204" y="-155"/>
      <point x="204" y="10" type="curve" smooth="yes"/>
      <point x="204" y="1058" type="line"/>
      <point x="424" y="1058" type="line"/>
      <point x="424" y="21" type="line" smooth="yes"/>
      <point x="424" y="-279"/>
      <point x="357" y="-351"/>
      <point x="69" y="-375" type="curve" smooth="yes"/>
    </contour>
    <contour>
      <point x="318" y="1460" type="curve" smooth="yes"/>
      <point x="399" y="1460"/>
      <point x="455" y="1420"/>
      <point x="455" y="1340" type="curve" smooth="yes"/>
      <point x="455" y="1260"/>
      <point x="399" y="1220"/>
      <point x="318" y="1220" type="curve" smooth="yes"/>
      <point x="237" y="1220"/>
      <point x="180" y="1260"/>
      <point x="180" y="1340" type="curve" smooth="yes"/>
      <point x="180" y="1420"/>
      <point x="237" y="1460"/>
    </contour>
  </outline>
</glyph>
<glyph name="o" format="1">
  <advance width="1173"/>
  <unicode hex="006F"/>
  <outline>
    <contour>
      <point x="587" y="-18" type="curve" smooth="yes"/>
      <point x="280" y="-18"/>
      <point x="76" y="202"/>
      <point x="76" y="530" type="curve" smooth="yes"/>
      <point x="76" y="866"/>
      <point x="271" y="1076"/>
      <point x="587" y="1076" type="curve" smooth="yes"/>
      <point x="898" y="1076"/>
      <point x="1097" y="862"/>
      <point x="1097" y="530" type="curve" smooth="yes"/>
      <point x="1097" y="199"/>
      <point x="897" y="-18"/>
    </contour>
    <contour>
      <point x="587" y="152" type="curve" smooth="yes"/>
      <point x="773" y="152"/>
      <point x="871" y="294"/>
      <point x="871" y="530" type="curve" smooth="yes"/>
      <point x="871" y="766"/>
      <point x="773" y="904"/>
      <point x="587" y="904" type="curve" smooth="yes"/>
      <point x="405" y="904"/>
      <point x="302" y="766"/>
      <point x="302" y="530" type="curve" smooth="yes"/>
      <point x="302" y="295"/>
      <point x="403" y="152"/>
    </contour>
  </outline>
</glyph>
<glyph name="p" format="1">
  <advance width="1163"/>
  <unicode hex="0070"/>
  <outline>
    <contour>
      <point x="605" y="152" type="curve" smooth="yes"/>
      <point x="770" y="152"/>
      <point x="864" y="282"/>
      <point x="864" y="532" type="curve" smooth="yes"/>
      <point x="864" y="777"/>
      <point x="778" y="904"/>
      <point x="611" y="904" type="curve" smooth="yes"/>
      <point x="433" y="904"/>
      <point x="344" y="786"/>
      <point x="343" y="548" type="curve"/>
      <point x="343" y="279"/>
      <point x="433" y="152"/>
    </contour>
    <contour>
      <point x="122" y="-441" type="line"/>
      <point x="122" y="1058" type="line"/>
      <point x="307" y="1058" type="line"/>
      <point x="330.445" y="870.438" type="line"/>
      <point x="401.156" y="1026.38"/>
      <point x="531.337" y="1076"/>
      <point x="663" y="1076" type="curve" smooth="yes"/>
      <point x="936" y="1076"/>
      <point x="1090" y="845"/>
      <point x="1090" y="530" type="curve" smooth="yes"/>
      <point x="1090" y="211"/>
      <point x="918" y="-18"/>
      <point x="638" y="-18" type="curve"/>
      <point x="501.743" y="-18"/>
      <point x="400.409" y="52.8022"/>
      <point x="340.946" y="153.377" type="curve"/>
      <point x="346" y="-37" type="line"/>
      <point x="346" y="-441" type="line"/>
    </contour>
  </outline>
</glyph>
<glyph name="v" format="1">
  <advance width="1052"/>
  <unicode hex="0076"/>
  <outline>
    <contour>
      <point x="425" y="0" type="line"/>
      <point x="14" y="1058" type="line"/>
      <point x="248" y="1058" type="line"/>
      <point x="344.44" y="784.139"/>
      <point x="443.971" y="513.368"/>
      <point x="536.005" y="235.101" type="curve"/>
      <point x="610" y="475" type="line"/>
      <point x="812" y="1058" type="line"/>
      <point x="1038" y="1058" type="line"/>
      <point x="639" y="0" type="line"/>
    </contour>
  </outline>
</glyph>
<glyph name="bar" format="1">
  <advance width="499"/>
  <unicode hex="007C"/>
  <outline>
    <contour>
      <point x="179" y="-317" type="line"/>
      <point x="179" y="1480" type="line"/>
      <point x="356" y="1480" type="line"/>
      <point x="356" y="-317" type="line"/>
    </contour>
  </outline>
</glyph>
<glyph name="sterling" format="1">
  <advance width="1085"/>
  <unicode hex="00A3"/>
  <outline>
    <contour>
      <point x="98" y="10" type="line"/>
      <point x="87" y="179" type="line"/>
      <point x="262" y="199" type="line"/>
      <point x="262" y="660" type="line"/>
      <point x="82" y="660" type="line"/>
      <point x="82" y="822" type="line"/>
      <point x="262" y="822" type="line"/>
      <point x="262" y="925" type="line" smooth="yes"/>
      <point x="262" y="1228"/>
      <point x="354" y="1476"/>
      <point x="688" y="1476" type="curve" smooth="yes"/>
      <point x="836" y="1476"/>
      <point x="958" y="1423"/>
      <point x="1051" y="1344" type="curve"/>
      <point x="957" y="1197" type="line"/>
      <point x="872" y="1259"/>
      <point x="792" y="1294"/>
      <point x="695" y="1294" type="curve" smooth="yes"/>
      <point x="530" y="1294"/>
      <point x="472" y="1180"/>
      <point x="472" y="996" type="curve" smooth="yes"/>
      <point x="472" y="822" type="line"/>
      <point x="859" y="822" type="line"/>
      <point x="859" y="660" type="line"/>
      <point x="472" y="660" type="line"/>
      <point x="472" y="201" type="line"/>
      <point x="1067" y="201" type="line"/>
      <point x="1058" y="10" type="line"/>
    </contour>
  </outline>
</glyph>
<glyph name="dieresis" format="1">
  <advance width="719"/>
  <unicode hex="00A8"/>
  <outline>
    <contour>
      <point x="138" y="1192" type="curve" smooth="yes"/>
      <point x="55" y="1192"/>
      <point x="0" y="1256"/>
      <point x="0" y="1328" type="curve" smooth="yes"/>
      <point x="0" y="1400"/>
      <point x="54" y="1466"/>
      <point x="138" y="1466" type="curve" smooth="yes"/>
      <point x="221" y="1466"/>
      <point x="274" y="1400"/>
      <point x="274" y="1328" type="curve" smooth="yes"/>
      <point x="274" y="1257"/>
      <point x="221" y="1192"/>
    </contour>
    <contour>
      <point x="719" y="1328" type="curve" smooth="yes"/>
      <point x="719" y="1257"/>
      <point x="666" y="1192"/>
      <point x="583" y="1192" type="curve" smooth="yes"/>
      <point x="500" y="1192"/>
      <point x="445" y="1256"/>
      <point x="445" y="1328" type="curve" smooth="yes"/>
      <point x="445" y="1400"/>
      <point x="499" y="1466"/>
      <point x="583" y="1466" type="curve" smooth="yes"/>
      <point x="666" y="1466"/>
      <point x="719" y="1400"/>
    </contour>
  </outline>
</glyph>
<glyph name="uni00AD" format="1">
  <advance width="797"/>
  <unicode hex="00AD"/>
  <outline>
    <contour>
      <point x="87" y="303" type="line"/>
      <point x="87" y="485" type="line"/>
      <point x="746" y="485" type="line"/>
      <point x="746" y="303" type="line"/>
    </contour>
  </outline>
</glyph>
<glyph name="plusminus" format="1">
  <advance width="1218"/>
  <unicode hex="00B1"/>
  <outline>
    <contour>
      <point x="519" y="238" type="line"/>
      <point x="519" y="612" type="line"/>
      <point x="151" y="612" type="line"/>
      <point x="151" y="785" type="line"/>
      <point x="519" y="785" type="line"/>
      <point x="519" y="1150" type="line"/>
      <point x="692" y="1150" type="line"/>
      <point x="692" y="785" type="line"/>
      <point x="1057" y="785" type="line"/>
      <point x="1057" y="612" type="line"/>
      <point x="692" y="612" type="line"/>
      <point x="692" y="238" type="line"/>
    </contour>
    <contour>
      <point x="142" y="0" type="line"/>
      <point x="142" y="159" type="line"/>
      <point x="1076" y="159" type="line"/>
      <point x="1076" y="0" type="line"/>
    </contour>
  </outline>
</glyph>
<glyph name="acute" format="1">
  <advance width="585"/>
  <unicode hex="00B4"/>
  <outline>
    <contour>
      <point x="149" y="1058" type="line"/>
      <point x="327" y="1460" type="line"/>
      <point x="596" y="1460" type="line"/>
      <point x="287" y="1058" type="line"/>
    </contour>
  </outline>
</glyph>
<glyph name="periodcentered" format="1">
  <advance width="405"/>
  <unicode hex="00B7"/>
  <outline>
    <contour>
      <point x="116" y="558" type="line"/>
      <point x="116" y="721" type="line"/>
      <point x="284" y="721" type="line"/>
      <point x="284" y="558" type="line"/>
    </contour>
  </outline>
</glyph>
<glyph name="cedilla" format="1">
  <advance width="550"/>
  <unicode hex="00B8"/>
  <outline>
    <contour>
      <point x="83" y="-398" type="line"/>
      <point x="192" y="1" type="line"/>
      <point x="318" y="1" type="line"/>
      <point x="269" y="-398" type="line"/>
    </contour>
  </outline>
</glyph>
<glyph name="onehalf" format="1">
  <advance width="1647"/>
  <unicode hex="00BD"/>
  <outline>
    <contour>
      <point x="1049" y="-20" type="line"/>
      <point x="1049" y="112" type="line"/>
      <point x="1122" y="186"/>
      <point x="1444" y="438"/>
      <point x="1444" y="567" type="curve" smooth="yes"/>
      <point x="1444" y="651"/>
      <point x="1379" y="695"/>
      <point x="1313" y="695" type="curve" smooth="yes"/>
      <point x="1240" y="695"/>
      <point x="1161" y="663"/>
      <point x="1111" y="595" type="curve"/>
      <point x="1034" y="700" type="line"/>
      <point x="1092" y="791"/>
      <point x="1203" y="840"/>
      <point x="1324" y="840" type="curve" smooth="yes"/>
      <point x="1468" y="840"/>
      <point x="1607" y="745"/>
      <point x="1607" y="574" type="curve" smooth="yes"/>
      <point x="1607" y="386"/>
      <point x="1464" y="276"/>
      <point x="1278" y="115" type="curve"/>
      <point x="1603" y="115" type="line"/>
      <point x="1590" y="-20" type="line"/>
    </contour>
    <contour>
      <point x="289" y="0" type="line"/>
      <point x="1247" y="1460" type="line"/>
      <point x="1423" y="1460" type="line"/>
      <point x="470" y="0" type="line"/>
    </contour>
    <contour>
      <point x="77" y="584" type="line"/>
      <point x="77" y="725" type="line"/>
      <point x="223" y="725" type="line"/>
      <point x="223" y="1284" type="line"/>
      <point x="186" y="1264"/>
      <point x="78" y="1216"/>
      <point x="63" y="1211" type="curve"/>
      <point x="63" y="1353" type="line"/>
      <point x="109" y="1372"/>
      <point x="229" y="1435"/>
      <point x="263" y="1460" type="curve"/>
      <point x="398" y="1460" type="line"/>
      <point x="398" y="725" type="line"/>
      <point x="535" y="725" type="line"/>
      <point x="535" y="584" type="line"/>
    </contour>
  </outline>
</glyph>
<glyph name="AE" format="1">
  <advance width="1719"/>
  <unicode hex="00C6"/>
  <outline>
    <contour>
      <point x="773" y="0" type="line"/>
      <point x="773" y="424" type="line"/>
      <point x="434.721" y="424" type="line"/>
      <point x="254" y="0" type="line"/>
      <point x="13" y="0" type="line"/>
      <point x="641" y="1460" type="line"/>
      <point x="1626" y="1460" type="line"/>
      <point x="1616" y="1274" type="line"/>
      <point x="1013" y="1274" type="line"/>
      <point x="1013" y="854" type="line"/>
      <point x="1573" y="854" type="line"/>
      <point x="1573" y="667" type="line"/>
      <point x="1013" y="667" type="line"/>
      <point x="1013" y="191" type="line"/>
      <point x="1643" y="191" type="line"/>
      <point x="1635" y="0" type="line"/>
    </contour>
    <contour>
      <point x="773" y="594" type="line"/>
      <point x="773" y="1261.92" type="line"/>
      <point x="501.656" y="594" type="line"/>
    </contour>
  </outline>
</glyph>
<glyph name="multiply" format="1">
  <advance width="1103"/>
  <unicode hex="00D7"/>
  <outline>
    <contour>
      <point x="832" y="168" type="line"/>
      <point x="553" y="455" type="line"/>
      <point x="272" y="167" type="line"/>
      <point x="154" y="291" type="line"/>
      <point x="431" y="580" type="line"/>
      <point x="158" y="868" type="line"/>
      <point x="276" y="990" type="line"/>
      <point x="553" y="704" type="line"/>
      <point x="827" y="988" type="line"/>
      <point x="948" y="866" type="line"/>
      <point x="674" y="580" type="line"/>
      <point x="723" y="531"/>
      <point x="950" y="293"/>
      <point x="950" y="293" type="curve"/>
    </contour>
  </outline>
</glyph>
<glyph name="Thorn" format="1">
  <advance width="1150"/>
  <unicode hex="00DE"/>
  <outline>
    <contour>
      <point x="148" y="0" type="line"/>
      <point x="148" y="1460" type="line"/>
      <point x="388" y="1460" type="line"/>
      <point x="388" y="1162" type="line"/>
      <point x="584" y="1162" type="line" smooth="yes"/>
      <point x="886" y="1162"/>
      <point x="1088" y="1081"/>
      <point x="1088" y="810" type="curve" smooth="yes"/>
      <point x="1088" y="569"/>
      <point x="969" y="422"/>
      <point x="583" y="422" type="curve" smooth="yes"/>
      <point x="388" y="422" type="line"/>
      <point x="388" y="0" type="line"/>
    </contour>
    <contour>
      <point x="388" y="994" type="line"/>
      <point x="388" y="597" type="line"/>
      <point x="576" y="597" type="line" smooth="yes"/>
      <point x="801" y="597"/>
      <point x="835" y="661"/>
      <point x="835" y="805" type="curve" smooth="yes"/>
      <point x="835" y="942"/>
      <point x="771" y="994"/>
      <point x="594" y="994" type="curve" smooth="yes"/>
    </contour>
  </outline>
</glyph>
<glyph name="lcaron" format="1">
  <advance width="818"/>
  <unicode hex="013E"/>
  <outline>
    <component base="l"/>
    <contour>
      <point x="589" y="991" type="line"/>
      <point x="634" y="1480" type="line"/>
      <point x="818" y="1480" type="line"/>
      <point x="722" y="991" type="line"/>
    </contour>
  </outline>
</glyph>
<glyph name="Lslash" format="1">
  <advance width="1097"/>
  <unicode hex="0141"/>
  <outline>
    <component base="L"/>
    <contour>
      <point x="-1.23535" y="559.568" type="line"/>
      <point x="-1.23535" y="740.568" type="line"/>
      <point x="748.877" y="1053.8" type="line"/>
      <point x="748.877" y="872.8" type="line"/>
    </contour>
  </outline>
</glyph>
<glyph name="napostrophe" format="1">
  <advance width="1166"/>
  <unicode hex="0149"/>
  <outline>
    <component base="n" xOffset="6"/>
    <contour>
      <point x="126" y="1222" type="line"/>
      <point x="171" y="1711" type="line"/>
      <point x="355" y="1711" type="line"/>
      <point x="259" y="1222" type="line"/>
    </contour>
  </outline>
</glyph>
<glyph name="eng" format="1">
  <advance width="1114"/>
  <unicode hex="014B"/>
  <outline>
    <contour>
      <point x="632" y="-327" type="line"/>
      <point x="612" y="-145" type="line"/>
      <point x="665" y="-145" type="line" smooth="yes"/>
      <point x="824" y="-145"/>
      <point x="840" y="-112"/>
      <point x="840" y="81" type="curve" smooth="yes"/>
      <point x="840" y="665" type="line"/>
      <point x="839" y="834"/>
      <point x="804" y="933"/>
      <point x="653" y="933" type="curve" smooth="yes"/>
      <point x="511" y="933"/>
      <point x="426" y="857"/>
      <point x="390" y="754" type="curve"/>
      <point x="380" y="700"/>
      <point x="377" y="635"/>
      <point x="377" y="562" type="curve" smooth="yes"/>
      <point x="377" y="0" type="line"/>
      <point x="147" y="0" type="line"/>
      <point x="147" y="1085" type="line"/>
      <point x="338" y="1085" type="line"/>
      <point x="361" y="946" type="line"/>
      <point x="443" y="1046"/>
      <point x="552" y="1109"/>
      <point x="705" y="1109" type="curve" smooth="yes"/>
      <point x="955" y="1109"/>
      <point x="1069" y="954"/>
      <point x="1069" y="674" type="curve" smooth="yes"/>
      <point x="1069" y="132" type="line"/>
      <point x="1068" y="-171"/>
      <point x="1015" y="-327"/>
      <point x="700" y="-327" type="curve" smooth="yes"/>
    </contour>
  </outline>
</glyph>
<glyph name="OE" format="1">
  <advance width="2111"/>
  <unicode hex="0152"/>
  <outline>
    <component base="E" xOffset="950"/>
    <contour>
      <point x="1226" y="0" type="line"/>
      <point x="884" y="0" type="line" smooth="yes"/>
      <point x="411" y="0"/>
      <point x="96" y="260"/>
      <point x="96" y="736" type="curve" smooth="yes"/>
      <point x="96" y="1233"/>
      <point x="434" y="1460"/>
      <point x="911" y="1460" type="curve" smooth="yes"/>
      <point x="1226" y="1460" type="line"/>
    </contour>
    <contour>
      <point x="1098" y="1276" type="line"/>
      <point x="908" y="1276" type="line" smooth="yes"/>
      <point x="550" y="1276"/>
      <point x="348" y="1113"/>
      <point x="348" y="731" type="curve" smooth="yes"/>
      <point x="348" y="382"/>
      <point x="532" y="180"/>
      <point x="880" y="180" type="curve" smooth="yes"/>
      <point x="1098" y="180" type="line"/>
    </contour>
  </outline>
</glyph>
<glyph name="florin" format="1">
  <advance width="828"/>
  <unicode hex="0192"/>
  <outline>
    <contour>
      <point x="564.298" y="912" type="line"/>
      <point x="412" y="49" type="line" smooth="yes"/>
      <point x="361" y="-238"/>
      <point x="213" y="-317"/>
      <point x="17" y="-317" type="curve" smooth="yes"/>
      <point x="-49" y="-317"/>
      <point x="-114" y="-309"/>
      <point x="-161" y="-299" type="curve"/>
      <point x="-112" y="-139" type="line"/>
      <point x="-91" y="-143"/>
      <point x="-37" y="-151"/>
      <point x="6" y="-151" type="curve" smooth="yes"/>
      <point x="98" y="-151"/>
      <point x="157" y="-129"/>
      <point x="185" y="32" type="curve" smooth="yes"/>
      <point x="340.298" y="912" type="line"/>
      <point x="171.298" y="912" type="line"/>
      <point x="198.691" y="1039" type="line"/>
      <point x="365.735" y="1056.26" type="line"/>
      <point x="373.977" y="1103" type="line" smooth="yes"/>
      <point x="424.582" y="1390"/>
      <point x="572.512" y="1469"/>
      <point x="768.512" y="1469" type="curve" smooth="yes"/>
      <point x="834.512" y="1469"/>
      <point x="899.102" y="1461"/>
      <point x="946.338" y="1451" type="curve"/>
      <point x="898.126" y="1291" type="line"/>
      <point x="876.831" y="1295"/>
      <point x="822.242" y="1303"/>
      <point x="779.242" y="1303" type="curve" smooth="yes"/>
      <point x="687.242" y="1303"/>
      <point x="629.362" y="1281"/>
      <point x="600.974" y="1120" type="curve" smooth="yes"/>
      <point x="590.042" y="1058" type="line"/>
      <point x="838.042" y="1058" type="line"/>
      <point x="812.298" y="912" type="line"/>
    </contour>
  </outline>
</glyph>
<glyph name="uni0237" format="1">
  <advance width="526"/>
  <unicode hex="0237"/>
  <outline>
    <contour>
      <point x="-24" y="-431" type="line"/>
      <point x="-56" y="-252" type="line"/>
      <point x="8" y="-252" type="line" smooth="yes"/>
      <point x="168.209" y="-252"/>
      <point x="171.004" y="-207.29"/>
      <point x="171.004" y="-60.338" type="curve" smooth="yes"/>
      <point x="171.004" y="-55.0265"/>
      <point x="171" y="-49.5814"/>
      <point x="171" y="-44" type="curve" smooth="yes"/>
      <point x="171" y="1092" type="line"/>
      <point x="405" y="1092" type="line"/>
      <point x="405" y="-28" type="line" smooth="yes"/>
      <point x="405" y="-310"/>
      <point x="344" y="-431"/>
      <point x="38" y="-431" type="curve" smooth="yes"/>
    </contour>
  </outline>
</glyph>
<glyph name="circumflex" format="1">
  <advance width="735"/>
  <unicode hex="02C6"/>
  <outline>
    <contour>
      <point x="41" y="1072" type="line"/>
      <point x="263" y="1460" type="line"/>
      <point x="465" y="1460" type="line"/>
      <point x="683" y="1072" type="line"/>
      <point x="521" y="1072" type="line"/>
      <point x="357" y="1311" type="line"/>
      <point x="201" y="1072" type="line"/>
    </contour>
  </outline>
</glyph>
<glyph name="caron" format="1">
  <advance width="733"/>
  <unicode hex="02C7"/>
  <outline>
    <contour>
      <point x="261" y="1095" type="line"/>
      <point x="33" y="1460" type="line"/>
      <point x="208" y="1460" type="line"/>
      <point x="351" y="1239" type="line"/>
      <point x="512" y="1460" type="line"/>
      <point x="690" y="1460" type="line"/>
      <point x="458" y="1095" type="line"/>
    </contour>
  </outline>
</glyph>
<glyph name="ring" format="1">
  <advance width="602"/>
  <unicode hex="02DA"/>
  <outline>
    <contour>
      <point x="300" y="1086" type="curve" smooth="yes"/>
      <point x="175" y="1086"/>
      <point x="94" y="1178"/>
      <point x="94" y="1284" type="curve" smooth="yes"/>
      <point x="94" y="1390"/>
      <point x="174" y="1480"/>
      <point x="300" y="1480" type="curve" smooth="yes"/>
      <point x="427" y="1480"/>
      <point x="507" y="1389"/>
      <point x="507" y="1284" type="curve" smooth="yes"/>
      <point x="507" y="1178"/>
      <point x="425" y="1086"/>
    </contour>
    <contour>
      <point x="300" y="1181" type="curve" smooth="yes"/>
      <point x="358" y="1181"/>
      <point x="395" y="1228"/>
      <point x="395" y="1283" type="curve" smooth="yes"/>
      <point x="395" y="1336"/>
      <point x="358" y="1384"/>
      <point x="300" y="1384" type="curve" smooth="yes"/>
      <point x="243" y="1384"/>
      <point x="207" y="1336"/>
      <point x="207" y="1283" type="curve" smooth="yes"/>
      <point x="207" y="1227"/>
      <point x="240" y="1181"/>
    </contour>
  </outline>
</glyph>
<glyph name="Delta" format="1">
  <advance width="1291"/>
  <unicode hex="0394"/>
  <outline>
    <contour>
      <point x="310" y="176" type="line"/>
      <point x="1038" y="176" type="line"/>
      <point x="671" y="1250" type="line"/>
    </contour>
    <contour>
      <point x="44" y="0" type="line"/>
      <point x="568" y="1474" type="line"/>
      <point x="775" y="1474" type="line"/>
      <point x="1299" y="0" type="line"/>
    </contour>
  </outline>
</glyph>
<glyph name="quoteright" format="1">
  <advance width="422"/>
  <unicode hex="2019"/>
  <outline>
    <contour>
      <point x="74" y="960" type="line"/>
      <point x="173" y="1460" type="line"/>
      <point x="394" y="1460" type="line"/>
      <point x="220" y="960" type="line"/>
    </contour>
  </outline>
</glyph>
<glyph name="daggerdbl" format="1">
  <advance width="934"/>
  <unicode hex="2021"/>
  <outline>
    <contour>
      <point x="825" y="399" type="line"/>
      <point x="559" y="399" type="line"/>
      <point x="559" y="21" type="line"/>
      <point x="393" y="21" type="line"/>
      <point x="393" y="399" type="line"/>
      <point x="122" y="399" type="line"/>
      <point x="122" y="539" type="line"/>
      <point x="393" y="539" type="line"/>
      <point x="393" y="951" type="line"/>
      <point x="123" y="951" type="line"/>
      <point x="123" y="1100" type="line"/>
      <point x="393" y="1100" type="line"/>
      <point x="393" y="1459" type="line"/>
      <point x="556" y="1459" type="line"/>
      <point x="556" y="1100" type="line"/>
      <point x="827" y="1100" type="line"/>
      <point x="827" y="951" type="line"/>
      <point x="558" y="951" type="line"/>
      <point x="559" y="539" type="line"/>
      <point x="825" y="539" type="line"/>
    </contour>
  </outline>
</glyph>
<glyph name="perthousand" format="1">
  <advance width="2725"/>
  <unicode hex="2030"/>
  <outline>
    <contour>
      <point x="1422" y="124" type="curve" smooth="yes"/>
      <point x="1556" y="124"/>
      <point x="1610" y="234"/>
      <point x="1610" y="373" type="curve" smooth="yes"/>
      <point x="1610" y="517"/>
      <point x="1555" y="619"/>
      <point x="1422" y="619" type="curve" smooth="yes"/>
      <point x="1287" y="619"/>
      <point x="1231" y="512"/>
      <point x="1231" y="373" type="curve" smooth="yes"/>
      <point x="1231" y="231"/>
      <point x="1287" y="124"/>
    </contour>
    <contour>
      <point x="1419" y="-20" type="curve" smooth="yes"/>
      <point x="1180" y="-20"/>
      <point x="1057" y="151"/>
      <point x="1057" y="371" type="curve" smooth="yes"/>
      <point x="1057" y="591"/>
      <point x="1184" y="759"/>
      <point x="1419" y="759" type="curve" smooth="yes"/>
      <point x="1659" y="759"/>
      <point x="1783" y="594"/>
      <point x="1783" y="371" type="curve" smooth="yes"/>
      <point x="1783" y="151"/>
      <point x="1656" y="-20"/>
    </contour>
    <contour>
      <point x="412" y="0" type="line"/>
      <point x="1255" y="1460" type="line"/>
      <point x="1438" y="1460" type="line"/>
      <point x="604" y="0" type="line"/>
    </contour>
    <contour>
      <point x="434" y="701" type="curve" smooth="yes"/>
      <point x="195" y="701"/>
      <point x="72" y="872"/>
      <point x="72" y="1092" type="curve" smooth="yes"/>
      <point x="72" y="1312"/>
      <point x="199" y="1480"/>
      <point x="434" y="1480" type="curve" smooth="yes"/>
      <point x="674" y="1480"/>
      <point x="798" y="1315"/>
      <point x="798" y="1092" type="curve" smooth="yes"/>
      <point x="798" y="872"/>
      <point x="671" y="701"/>
    </contour>
    <contour>
      <point x="437" y="845" type="curve" smooth="yes"/>
      <point x="571" y="845"/>
      <point x="625" y="955"/>
      <point x="625" y="1094" type="curve" smooth="yes"/>
      <point x="625" y="1238"/>
      <point x="570" y="1340"/>
      <point x="437" y="1340" type="curve" smooth="yes"/>
      <point x="302" y="1340"/>
      <point x="246" y="1233"/>
      <point x="246" y="1094" type="curve" smooth="yes"/>
      <point x="246" y="952"/>
      <point x="302" y="845"/>
    </contour>
    <contour>
      <point x="2292" y="124" type="curve" smooth="yes"/>
      <point x="2426" y="124"/>
      <point x="2480" y="234"/>
      <point x="2480" y="373" type="curve" smooth="yes"/>
      <point x="2480" y="517"/>
      <point x="2425" y="619"/>
      <point x="2292" y="619" type="curve" smooth="yes"/>
      <point x="2157" y="619"/>
      <point x="2101" y="512"/>
      <point x="2101" y="373" type="curve" smooth="yes"/>
      <point x="2101" y="231"/>
      <point x="2157" y="124"/>
    </contour>
    <contour>
      <point x="2289" y="-20" type="curve" smooth="yes"/>
      <point x="2050" y="-20"/>
      <point x="1927" y="151"/>
      <point x="1927" y="371" type="curve" smooth="yes"/>
      <point x="1927" y="591"/>
      <point x="2054" y="759"/>
      <point x="2289" y="759" type="curve" smooth="yes"/>
      <point x="2529" y="759"/>
      <point x="2653" y="594"/>
      <point x="2653" y="371" type="curve" smooth="yes"/>
      <point x="2653" y="151"/>
      <point x="2526" y="-20"/>
    </contour>
  </outline>
</glyph>
<glyph name="product" format="1">
  <advance width="1456"/>
  <unicode hex="220F"/>
  <outline>
    <contour>
      <point x="149" y="0" type="line"/>
      <point x="149" y="1485" type="line"/>
      <point x="1310" y="1485" type="line"/>
      <point x="1310" y="0" type="line"/>
      <point x="1134" y="0" type="line"/>
      <point x="1134" y="1332" type="line"/>
      <point x="325" y="1332" type="line"/>
      <point x="325" y="0" type="line"/>
    </contour>
  </outline>
</glyph>
<glyph name="infinity" format="1">
  <advance width="1769"/>
  <unicode hex="221E"/>
  <outline>
    <contour>
      <point x="1298" y="378" type="curve" smooth="yes"/>
      <point x="1453" y="378"/>
      <point x="1527" y="503"/>
      <point x="1527" y="660" type="curve" smooth="yes"/>
      <point x="1527" y="783"/>
      <point x="1430" y="887"/>
      <point x="1294" y="887" type="curve" smooth="yes"/>
      <point x="1156" y="887"/>
      <point x="1046" y="765"/>
      <point x="957" y="634" type="curve"/>
      <point x="1079" y="467"/>
      <point x="1172" y="378"/>
    </contour>
    <contour>
      <point x="473" y="378" type="curve" smooth="yes"/>
      <point x="605" y="378"/>
      <point x="720" y="494"/>
      <point x="814" y="632" type="curve"/>
      <point x="721" y="778"/>
      <point x="609" y="887"/>
      <point x="466" y="887" type="curve" smooth="yes"/>
      <point x="319" y="887"/>
      <point x="228" y="771"/>
      <point x="228" y="634" type="curve" smooth="yes"/>
      <point x="228" y="505"/>
      <point x="326" y="378"/>
    </contour>
    <contour>
      <point x="471" y="252" type="curve" smooth="yes"/>
      <point x="246" y="252"/>
      <point x="115" y="438"/>
      <point x="115" y="655" type="curve" smooth="yes"/>
      <point x="115" y="853"/>
      <point x="271" y="1010"/>
      <point x="467" y="1010" type="curve" smooth="yes"/>
      <point x="637" y="1010"/>
      <point x="763" y="902"/>
      <point x="885" y="740" type="curve"/>
      <point x="999" y="897"/>
      <point x="1125" y="1010"/>
      <point x="1298" y="1010" type="curve" smooth="yes"/>
      <point x="1523" y="1010"/>
      <point x="1649" y="854"/>
      <point x="1649" y="638" type="curve" smooth="yes"/>
      <point x="1649" y="411"/>
      <point x="1494" y="252"/>
      <point x="1296" y="252" type="curve" smooth="yes"/>
      <point x="1145" y="252"/>
      <point x="1021" y="340"/>
      <point x="885" y="521" type="curve"/>
      <point x="766" y="364"/>
      <point x="637" y="252"/>
    </contour>
  </outline>
</glyph>
<glyph name="lessequal" format="1">
  <advance width="1141"/>
  <unicode hex="2264"/>
  <outline>
    <contour>
      <point x="125" y="1" type="line"/>
      <point x="125" y="149" type="line"/>
      <point x="1062" y="149" type="line"/>
      <point x="1062" y="1" type="line"/>
    </contour>
    <contour>
      <point x="1046" y="276" type="line"/>
      <point x="144" y="715" type="line"/>
      <point x="144" y="821" type="line"/>
      <point x="1046" y="1277" type="line"/>
      <point x="1046" y="1098" type="line"/>
      <point x="372" y="769" type="line"/>
      <point x="1046" y="457" type="line"/>
    </contour>
  </outline>
</glyph>
